<svg xmlns="http://www.w3.org/2000/svg" class="svg-logo svg-logo_for_libraray" viewBox="0 0 238.44 38.43" width="238.44" height="38.43"><defs><style>.a{fill:#147794;}.b{fill:#1baab7;}.c{fill:#393a3a;}</style></defs><path class="a" d="M31.51,19.51c3.25-3.26,3.92-3.85,19.9-19.51H37.1L17.22,19.5"/><path class="a" d="M14.33,36.37c3.18-3.12,4.83-4.79,7.1-7l-7.15-7C9.2,27.28,3.1,33.31,0,36.37"/><path class="b" d="M22.89,8.13c-1.14,1.14-5.12,5.07-8.58,8.41C9.8,12.18,9.61,12,5.65,8.13Z"/><path class="b" d="M41.66,29.49c-3-2.92-7.08-7-10.16-10H17.22c1.76,1.67,7,6.88,10.18,10Z"/><path class="c" d="M69.35,15c0,3.22-.17,6.46-1.42,8.37l-.07.11,1.2,1.27.11-.2a15.78,15.78,0,0,0,1.51-5.88H74.1v2.41c0,2-.34,2-1.79,2h-.88L72,24.59h.12c2.39,0,3.44-.32,3.44-3.37V8.78H69.35Zm1.41-2V10.17H74.1V13Zm3.34,1.4v2.93H70.73V14.39Z"/><path class="c" d="M68.46,20.21H64.83V19h3.09V12.4H64.83V11.2h3.6V9.83h-3.6V8.07H63.41V9.83H59.78V11.2h3.63v1.16H60.32V19h3.09v1.25H59.62v1.38h3.79v3.09h1.42V21.59h3.63Zm-1.95-4v1.34H61.73v-1.3ZM61.73,15V13.74h4.78V15Z"/><path class="c" d="M79.22,24.68h1.49V23.36h9.38v1.32h1.49V8.78H79.22Zm1.49-9.39v-5h9.38v5Zm9.38,1.41v5.19H80.71V16.7Z"/><path class="c" d="M102.86,21a12,12,0,0,1-2.39-3h2.81V16.61H99.94v-1.7h3.49V13.54h-2a17.38,17.38,0,0,0,.73-2.46h.91V9.7H99.94V8.07H98.56V9.7h-3.2v1.38h1c.16.44.45,1.43.7,2.46h-2v1.37h3.49v1.7H95.32V18H98a13.32,13.32,0,0,1-3.11,4l-.11.09.85,1.34.15-.14a13.57,13.57,0,0,0,2.74-3.89v5.26H99.9V19.19a10.59,10.59,0,0,0,2.1,3.08l.14.13.83-1.32Zm-2.07-9.91a13.23,13.23,0,0,1-.69,2.46H98.42c-.28-1.11-.49-1.9-.67-2.46Z"/><path class="c" d="M105.71,10.61a18.92,18.92,0,0,0,5.21-1l.18-.07-.75-1.28h-.13a17.17,17.17,0,0,1-5.72,1h-.17v4.92c0,3.71-.13,6.71-1.74,8.84l-.08.11,1,1.13.12-.16c1.67-2.4,2-5.29,2-9.16H108v9.68h1.38V15h2V13.63h-5.66Z"/><path class="c" d="M122.6,14.39h5.5V22c0,1.27,0,1.32-2,1.32h-.24l.52,1.36h.25c2.63-.16,2.92-.28,2.92-3.27V8.63h-7ZM124,11V10h4.09v1Zm4.09,1.13v1H124V12.11Z"/><path class="c" d="M127.23,15.2H116.94v1.21h1.74V22c-.31,0-1,.08-1.49.09H117l.24,1.29h.14a48.17,48.17,0,0,0,6.88-.8v1.61h1.4V16.41h1.57Zm-7.16,2.21v-1h4.19v1Zm0,2.13V18.49h4.19v1.05Zm0,2.32V20.63h4.19v.76C122.41,21.65,121.23,21.78,120.07,21.86Z"/><path class="c" d="M121.59,8.63h-6.91v16h1.41V14.39h5.5Zm-1.41,3.48v1.05h-4.09V12.11Zm0-2.17v1h-4.09v-1Z"/><path class="c" d="M137.22,9.58a11,11,0,0,1-4.15,5.7l-.07.05V17l.25-.14a12.28,12.28,0,0,0,5.14-5.95h8.32c-.84,6.82-4.59,10.91-10.86,11.83h-.14v1.49h.19c7.59-1,11.91-6,12.51-14.48V9.47H137.26Z"/><path class="c" d="M151.45,23.45h14V9.81h-14Zm12.48-12.19V22H153V11.26Z"/><path class="c" d="M177.71,16.6a20.16,20.16,0,0,0,2.86-6.77l.05-.2H168.56v1.48h10.06a17.62,17.62,0,0,1-10.74,11.43h-.11v1.58L168,24a19.37,19.37,0,0,0,8.68-6,19.3,19.3,0,0,0,6.24,6.28l.25.15V22.66l-.06-.05A17.47,17.47,0,0,1,177.71,16.6Z"/><path class="c" d="M197.65,8.67h-1.52v3.82h-7.7V8.67h-1.52v3.82h-3.12v1.43h3.12V19h1.52V13.9h7.7v.74c0,5.14-2.33,7.71-7.54,8.34h-.15v1.46h.19c6.24-.79,9-3.86,9-9.93V13.9h3.09V12.49h-3.09Z"/><rect class="c" x="203.8" y="14.91" width="15.5" height="1.47"/><path class="c" d="M232.16,14.71V11.23c2.64-.22,4.42-.91,5.17-2L237.5,9h-2.15c-.9.6-2.79.91-5.63.91H224v1.41h6.7v3.4h-8.2v1.43h8.19c-.09,3.63-2.24,6-6.06,6.71h-.14v1.45h.19c2.24-.36,7.44-1.87,7.55-8.16h6.28V14.71Z"/><path class="c" d="M123,30.54v.8h1v.55h-1V36.5h-.66V31.89h-.72v-.55h.72v-.82c0-.93.29-1.42,1.62-1.48l.13.54C123.08,29.61,123,29.89,123,30.54Z"/><path class="c" d="M127.4,36.53a2.57,2.57,0,0,1-2.62-2.5c0-.12,0-.23,0-.35a2.62,2.62,0,1,1,5.21,0,2.54,2.54,0,0,1-2.23,2.83A2.42,2.42,0,0,1,127.4,36.53Zm0-5.1a2,2,0,0,0-1.92,2.07,1.09,1.09,0,0,0,0,.18,2,2,0,0,0,1.73,2.24h.18c1.1,0,1.91-.82,1.91-2.25S128.5,31.43,127.4,31.43Z"/><path class="c" d="M133.54,31.49a1.47,1.47,0,0,0-1.44.93v4h-.69V30.94H132v.61a1.87,1.87,0,0,1,1.64-.72l.18.68Z"/><path class="c" d="M138.74,36.42V28.67h.73v7.06h3.93v.69Z"/><path class="c" d="M144.6,29.83V28.67h.75v1.16Zm0,6.59V30.94h.71v5.48Z"/><path class="c" d="M149.45,36.53a2.31,2.31,0,0,1-1.75-.8l-.16.69H147V28.67h.69v3.12a1.81,1.81,0,0,1,1.73-1c1.44,0,2.35,1,2.35,2.85S150.87,36.53,149.45,36.53Zm-.09-5.11A1.63,1.63,0,0,0,147.71,33v2a2,2,0,0,0,1.65.9c1,0,1.75-.72,1.75-2.26S150.36,31.42,149.36,31.42Z"/><path class="c" d="M155.49,31.49a1.47,1.47,0,0,0-1.44.93v4h-.69V30.94H154v.61a1.87,1.87,0,0,1,1.64-.72l.18.68Z"/><path class="c" d="M161.55,36.48a1.49,1.49,0,0,1-.36.05.81.81,0,0,1-.87-.75v-.11a2.53,2.53,0,0,1-2.13.86c-1.12,0-1.64-.5-1.67-1.38v-.1c0-1.07.8-1.54,1.89-1.8.83-.19,1.75-.48,1.75-.93,0-.67-.53-.91-1.43-.91a2.23,2.23,0,0,0-1.79.92l-.34-.53a2.68,2.68,0,0,1,2.15-1c1.33,0,2.15.42,2.15,1.56v2.92c0,.42.17.62.47.62a.87.87,0,0,0,.32-.06Zm-1.34-3.38a3.75,3.75,0,0,1-1.63.69c-.79.19-1.38.47-1.38,1.24v.08c0,.54.37.83,1.07.83s1.75-.35,1.94-1.07Z"/><path class="c" d="M164.9,31.49a1.47,1.47,0,0,0-1.44.93v4h-.69V30.94h.63v.61a1.87,1.87,0,0,1,1.64-.72l.18.68Z"/><path class="c" d="M168.52,37c-.36,1-.89,1.42-2.28,1.42l-.2-.64h.19c1.14,0,1.36-.29,1.76-1.41l-2.31-5.44h.74l1.7,3.92a3.08,3.08,0,0,1,.23.84h0a4.32,4.32,0,0,1,.21-.86l1.3-3.9h.7Z"/></svg>